<svg viewBox="0 0 32 32" fill="none" xmlns="http://www.w3.org/2000/svg">
  <path d="M27.2 14.4c.5-1.5.4-3.2-.3-4.6-1.2-2.3-3.7-3.6-6.2-3.4-.9-1.3-2.3-2.2-3.9-2.6-2.5-.5-5.1.4-6.7 2.4-1.6-.3-3.2.1-4.5 1.1-2 1.5-2.8 4.1-2.1 6.5-.5 1.5-.4 3.2.3 4.6 1.2 2.3 3.7 3.6 6.2 3.4.9 1.3 2.3 2.2 3.9 2.6 2.5.5 5.1-.4 6.7-2.4 1.6.3 3.2-.1 4.5-1.1 2-1.5 2.8-4.1 2.1-6.5zM18 22.8c-1.4.4-2.9 0-3.9-1l-.1-.1 4.7-2.7v-.6l-5.4-3.1v2.1l2.1 1.2-4 2.3c-1-.7-1.7-1.8-1.9-3.1-.2-1.3.1-2.6.9-3.6l.1.1 4.7 2.7.5-.3V9.3l-1.8 1.1-4-2.3c.8-1 2-1.6 3.3-1.7 1.3-.1 2.6.3 3.6 1.2v5.5l.5.3 4.7-2.7.1.1c.6 1 .8 2.3.5 3.4-.3 1.2-1 2.2-2 2.8v.1l-4.7-2.7-.5.3v6.2l1.8-1.1 4 2.3c-.5.5-1.1.8-1.8 1.1z" fill="currentColor"/>
</svg>
